<svg width="16" height="19" viewBox="0 0 16 19" fill="none" xmlns="http://www.w3.org/2000/svg">
<path d="M11.5427 0H0V19H16V4.46964L11.5427 0ZM11.7895 1.44147L14.5623 4.22222H11.7895V1.44147ZM0.842105 18.1556V0.844444H10.9474V5.06667H15.1579V18.1556H0.842105ZM6.94737 7.6H12.8421V8.44444H6.94737V7.6ZM6.94737 10.5556H12.8421V11.4H6.94737V10.5556ZM6.94737 13.5111H12.8421V14.3556H6.94737V13.5111ZM5.43158 9.58444L5.93684 10.26L3.96042 11.7464L2.86 10.643L3.45537 10.0459L4.03916 10.6313L5.43158 9.58444ZM5.43158 12.54L5.93684 13.2156L3.96042 14.702L2.86 13.5985L3.45537 13.0015L4.03916 13.5869L5.43158 12.54Z" fill="url(#paint0_linear_23_528)"/>
<defs>
<linearGradient id="paint0_linear_23_528" x1="-1.85116" y1="1.8563" x2="15.671" y2="19.3299" gradientUnits="userSpaceOnUse">
<stop stop-color="#00C6FF"/>
<stop offset="1" stop-color="#0072FF"/>
</linearGradient>
</defs>
</svg>
