<svg width="17" height="17" viewBox="0 0 17 17" fill="none" xmlns="http://www.w3.org/2000/svg">
<path d="M7.63662 11.5715C7.34167 11.5809 7.04774 11.5321 6.77162 11.428C6.4955 11.3238 6.2426 11.1663 6.02736 10.9644C5.59266 10.5567 5.33775 9.99296 5.31868 9.39726C5.29962 8.80157 5.51798 8.2227 5.92572 7.788C6.33346 7.3533 6.89718 7.09838 7.49288 7.07932C7.61202 7.07217 7.72911 7.11264 7.81841 7.19183C7.90771 7.27102 7.96189 7.38244 7.96904 7.50158C7.97619 7.62072 7.93572 7.73782 7.85653 7.82712C7.77734 7.91642 7.66592 7.9706 7.54678 7.97775C7.28879 7.99561 7.04138 8.08732 6.83409 8.24194C6.62679 8.39657 6.46836 8.60757 6.37771 8.84977C6.28706 9.09198 6.26801 9.35515 6.32283 9.60788C6.37766 9.86061 6.50405 10.0922 6.68692 10.2751C6.86978 10.458 7.1014 10.5844 7.35413 10.6392C7.60687 10.694 7.87004 10.675 8.11224 10.5843C8.35444 10.4936 8.56545 10.3352 8.72007 10.1279C8.87469 9.92063 8.96641 9.67323 8.98427 9.41523C8.99347 9.29687 9.04825 9.18671 9.13707 9.10794C9.2259 9.02918 9.34182 8.98796 9.46043 8.99297C9.51946 8.99641 9.57723 9.01146 9.63043 9.03727C9.68362 9.06308 9.7312 9.09914 9.77043 9.14338C9.80966 9.18762 9.83977 9.23916 9.85904 9.29507C9.8783 9.35097 9.88634 9.41012 9.88269 9.46914C9.84611 10.0396 9.59342 10.5746 9.1761 10.9652C8.75878 11.3558 8.20823 11.5726 7.63662 11.5715ZM4.03393 7.07932C3.93714 7.07694 3.84327 7.04565 3.7644 6.98948C3.66909 6.91799 3.60608 6.81158 3.58923 6.69364C3.57238 6.57569 3.60308 6.45589 3.67456 6.36058C4.13623 5.74619 4.7346 5.24772 5.42229 4.90465C6.10999 4.56158 6.86811 4.38334 7.63662 4.38404C8.43506 4.38274 9.22165 4.57708 9.92761 4.95005C10.0325 5.00724 10.1103 5.10373 10.144 5.2183C10.1777 5.33287 10.1645 5.45614 10.1073 5.56098C10.0501 5.66582 9.95362 5.74365 9.83905 5.77735C9.72448 5.81105 9.60121 5.79785 9.49637 5.74066C8.64524 5.29576 7.66308 5.16985 6.72724 5.38568C5.79141 5.60152 4.9636 6.14487 4.3933 6.9176C4.34921 6.9696 4.29406 7.01109 4.23189 7.03907C4.16972 7.06705 4.10209 7.0808 4.03393 7.07932Z" fill="url(#paint0_linear_29_537)"/>
<path d="M7.63666 14.2667C6.32686 14.2644 5.07139 13.743 4.14522 12.8168C3.21905 11.8907 2.69769 10.6352 2.69531 9.3254C2.6966 8.99358 2.7297 8.66264 2.79414 8.33713C2.80594 8.27814 2.82924 8.22205 2.86271 8.17206C2.89619 8.12208 2.93918 8.07917 2.98924 8.0458C3.0393 8.01243 3.09543 7.98925 3.15445 7.97757C3.21347 7.9659 3.2742 7.96596 3.3332 7.97776C3.39219 7.98956 3.44828 8.01286 3.49826 8.04634C3.54825 8.07981 3.59115 8.1228 3.62452 8.17286C3.65789 8.22292 3.68108 8.27905 3.69275 8.33807C3.70443 8.39709 3.70436 8.45782 3.69257 8.51682C3.58016 9.07037 3.585 9.64133 3.70677 10.1929C3.82854 10.7445 4.06454 11.2644 4.39954 11.7192C4.73455 12.174 5.16114 12.5535 5.65181 12.8333C6.14248 13.1131 6.68633 13.287 7.24832 13.3438C7.81031 13.4006 8.37796 13.3389 8.91467 13.1629C9.45139 12.9868 9.94526 12.7003 10.3644 12.3217C10.7836 11.9431 11.1188 11.4809 11.3484 10.9648C11.5781 10.4487 11.697 9.89025 11.6976 9.3254C11.6985 8.67743 11.5412 8.03903 11.2394 7.46566C11.211 7.41374 11.1932 7.35676 11.1869 7.29796C11.1806 7.23917 11.186 7.17971 11.2027 7.12298C11.2194 7.06625 11.247 7.01336 11.2842 6.96733C11.3213 6.92131 11.3671 6.88304 11.419 6.85473C11.471 6.82641 11.5279 6.8086 11.5867 6.8023C11.6455 6.79601 11.705 6.80136 11.7617 6.81804C11.8184 6.83473 11.8713 6.86242 11.9174 6.89955C11.9634 6.93667 12.0017 6.9825 12.03 7.03441C12.3967 7.74197 12.5848 8.52848 12.578 9.3254C12.5756 10.6352 12.0543 11.8907 11.1281 12.8168C10.2019 13.743 8.94646 14.2644 7.63666 14.2667Z" fill="url(#paint1_linear_29_537)"/>
<path d="M7.63663 16.962C5.61127 16.962 3.66886 16.1575 2.23672 14.7253C0.804571 13.2932 0 11.3508 0 9.32539C0 7.30003 0.804571 5.35763 2.23672 3.92548C3.66886 2.49333 5.61127 1.68876 7.63663 1.68876C8.48706 1.68727 9.33158 1.83005 10.1343 2.11102C10.1913 2.12985 10.244 2.15992 10.2892 2.19945C10.3344 2.23899 10.3712 2.28719 10.3975 2.34121C10.4237 2.39523 10.4389 2.45396 10.4421 2.51394C10.4452 2.57392 10.4363 2.63392 10.4159 2.6904C10.3955 2.74688 10.3639 2.79869 10.3231 2.84276C10.2823 2.88684 10.2331 2.92229 10.1784 2.94701C10.1236 2.97173 10.0645 2.98522 10.0044 2.98669C9.9444 2.98815 9.88467 2.97756 9.82879 2.95554C9.12414 2.70977 8.38292 2.58522 7.63663 2.58719C6.30394 2.58719 5.00118 2.98238 3.89309 3.72278C2.78499 4.46319 1.92134 5.51555 1.41134 6.74679C0.901343 7.97804 0.767905 9.33287 1.0279 10.64C1.28789 11.947 1.92965 13.1477 2.872 14.09C3.81436 15.0324 5.01499 15.6741 6.32207 15.9341C7.62916 16.1941 8.98398 16.0607 10.2152 15.5507C11.4465 15.0407 12.4988 14.177 13.2392 13.0689C13.9796 11.9608 14.3748 10.6581 14.3748 9.32539C14.3768 8.57911 14.2523 7.83789 14.0065 7.13323C13.9845 7.07735 13.9739 7.01762 13.9753 6.95758C13.9768 6.89754 13.9903 6.8384 14.015 6.78366C14.0397 6.72892 14.0752 6.6797 14.1193 6.6389C14.1633 6.5981 14.2151 6.56655 14.2716 6.54612C14.3281 6.52569 14.3881 6.5168 14.4481 6.51996C14.5081 6.52312 14.5668 6.53828 14.6208 6.56454C14.6748 6.5908 14.723 6.62763 14.7626 6.67284C14.8021 6.71805 14.8322 6.77073 14.851 6.82777C15.132 7.63044 15.2747 8.47496 15.2733 9.32539C15.2709 11.35 14.4655 13.291 13.0339 14.7227C11.6023 16.1543 9.66126 16.9596 7.63663 16.962Z" fill="url(#paint2_linear_29_537)"/>
<path d="M7.63661 9.77459C7.5777 9.7753 7.51928 9.76369 7.46513 9.74048C7.41097 9.71727 7.36227 9.68298 7.32216 9.63982C7.27919 9.59949 7.24494 9.55078 7.22153 9.4967C7.19811 9.44261 7.18604 9.38431 7.18604 9.32537C7.18604 9.26644 7.19811 9.20813 7.22153 9.15405C7.24494 9.09996 7.27919 9.05125 7.32216 9.01092L14.8869 1.44617C14.9282 1.40487 14.9772 1.37212 15.0312 1.34977C15.0851 1.32742 15.143 1.31592 15.2014 1.31592C15.2598 1.31592 15.3176 1.32742 15.3715 1.34977C15.4255 1.37212 15.4745 1.40487 15.5158 1.44617C15.5571 1.48746 15.5899 1.53648 15.6122 1.59044C15.6346 1.64439 15.6461 1.70222 15.6461 1.76062C15.6461 1.81902 15.6346 1.87684 15.6122 1.9308C15.5899 1.98475 15.5571 2.03377 15.5158 2.07507L7.95106 9.63982C7.91095 9.68298 7.86225 9.71727 7.8081 9.74048C7.75394 9.76369 7.69553 9.7753 7.63661 9.77459Z" fill="url(#paint3_linear_29_537)"/>
<path d="M13.9885 5.96527H13.8897L11.8233 5.4891C11.7412 5.47288 11.6657 5.43262 11.6065 5.37343C11.5473 5.31424 11.5071 5.2388 11.4909 5.15668L11.0147 3.0903C10.9973 3.01717 10.9988 2.9408 11.0193 2.86845C11.0397 2.79611 11.0784 2.7302 11.1315 2.67702L13.674 0.134474C13.7298 0.0767178 13.8003 0.0353065 13.8779 0.0147205C13.9555 -0.00586548 14.0372 -0.0048424 14.1143 0.0176789C14.1917 0.0398305 14.2617 0.0823705 14.317 0.140849C14.3723 0.199328 14.4109 0.271597 14.4287 0.350097L14.842 2.14695L16.6388 2.56023C16.758 2.58644 16.8618 2.6589 16.9275 2.76168C16.9933 2.86446 17.0154 2.98913 16.9892 3.10827C16.963 3.22741 16.8906 3.33125 16.7878 3.39696C16.685 3.46267 16.5603 3.48486 16.4412 3.45865L14.3748 2.93757C14.2894 2.9179 14.2113 2.87461 14.1493 2.81266C14.0874 2.7507 14.0441 2.67257 14.0244 2.58718L13.7369 1.31141L11.9401 3.10827L12.2994 4.65356L13.8447 5.01293L15.0037 3.86295C15.0877 3.78064 15.2006 3.73454 15.3182 3.73454C15.4357 3.73454 15.5486 3.78064 15.6326 3.86295C15.6747 3.90471 15.7081 3.95439 15.7309 4.00913C15.7537 4.06387 15.7655 4.12259 15.7655 4.18189C15.7655 4.24119 15.7537 4.2999 15.7309 4.35465C15.7081 4.40939 15.6747 4.45907 15.6326 4.50083L14.3029 5.8305C14.2628 5.87366 14.2141 5.90795 14.16 5.93116C14.1058 5.95437 14.0474 5.96598 13.9885 5.96527Z" fill="url(#paint4_linear_29_537)"/>
<defs>
<linearGradient id="paint0_linear_29_537" x1="3.75852" y1="5.33593" x2="9.65286" y2="10.8908" gradientUnits="userSpaceOnUse">
<stop stop-color="#00C6FF"/>
<stop offset="1" stop-color="#0072FF"/>
</linearGradient>
<linearGradient id="paint1_linear_29_537" x1="2.95646" y1="7.78851" x2="8.80684" y2="15.7636" gradientUnits="userSpaceOnUse">
<stop stop-color="#00C6FF"/>
<stop offset="1" stop-color="#0072FF"/>
</linearGradient>
<linearGradient id="paint2_linear_29_537" x1="0.403586" y1="3.7112" x2="12.9436" y2="16.6268" gradientUnits="userSpaceOnUse">
<stop stop-color="#00C6FF"/>
<stop offset="1" stop-color="#0072FF"/>
</linearGradient>
<linearGradient id="paint3_linear_29_537" x1="7.40959" y1="2.436" x2="14.3545" y2="9.59007" gradientUnits="userSpaceOnUse">
<stop stop-color="#00C6FF"/>
<stop offset="1" stop-color="#0072FF"/>
</linearGradient>
<linearGradient id="paint4_linear_29_537" x1="11.1612" y1="0.78991" x2="16.0581" y2="5.86057" gradientUnits="userSpaceOnUse">
<stop stop-color="#00C6FF"/>
<stop offset="1" stop-color="#0072FF"/>
</linearGradient>
</defs>
</svg>
